# xmcd CD database file
#
# Track frame offsets:
#	150
#	18562
#	37403
#	55701
#
# Disc length: 993 seconds
#
# Revision: 1
# Processed by: cddbd v1.5.2PL0 Copyright (c) Steve Scherf et al.
# Submitted via: CDex 1.70beta2
#
DISCID=3103df04
DTITLE=asfi - せーりんぐなう
DYEAR=2012
DGENRE=JPop
TTITLE0=せーりんぐなう
TTITLE1=夢のトビラ(asfi ver.)
TTITLE2=せーりんぐなう -Instrumental-
TTITLE3=夢のトビラ(asfi ver.) -Instrumental-
EXTD=YEAR: 2012
EXTT0=
EXTT1=
EXTT2=
EXTT3=
PLAYORDER=
